<svg width="18" height="17" viewBox="0 0 18 17" fill="none" xmlns="http://www.w3.org/2000/svg">
<path fill-rule="evenodd" clip-rule="evenodd" d="M8.62532 0.0806819C8.28396 0.203499 0.207773 8.36512 0.0714389 8.72505C-0.120045 9.23035 0.107062 9.85031 0.571272 10.0895C0.82453 10.2201 1.27683 10.2467 1.54316 10.1467C1.63411 10.1126 3.32614 8.45065 5.35313 6.40451L8.99951 2.72371L12.6464 6.40416C14.6637 8.44009 16.3663 10.1123 16.4568 10.1464C16.5468 10.1804 16.7574 10.2081 16.9248 10.2081C17.7129 10.2081 18.2319 9.37659 17.8961 8.65237C17.8218 8.4921 16.48 7.10037 13.6696 4.26872C10.1287 0.700871 9.51951 0.111093 9.3196 0.056788C9.02102 -0.0243462 8.90613 -0.0204129 8.62532 0.0806819ZM8.50601 6.89407C8.21661 7.04396 0.229565 15.1334 0.103982 15.4038C-0.288864 16.2498 0.49526 17.2023 1.38713 16.9623C1.62527 16.8982 1.97663 16.5611 5.32431 13.1837L8.99998 9.47551L12.6757 13.1837C15.9997 16.5372 16.3758 16.8985 16.6073 16.9598C17.5016 17.1968 18.2876 16.2479 17.8961 15.4038C17.7608 15.1121 9.6913 6.95701 9.44658 6.86478C9.20727 6.77454 8.70674 6.7901 8.50601 6.89407Z" fill="#0C2E3D"/>
</svg>
