<svg width="11" height="12" viewBox="0 0 11 12" fill="none" xmlns="http://www.w3.org/2000/svg">
<path fill-rule="evenodd" clip-rule="evenodd" d="M5.1287 0.177221C4.79019 0.366683 3.18774 1.25338 1.29836 2.29667C0.717744 2.61729 0.242946 2.88369 0.243287 2.88867C0.244158 2.90205 2.24796 4.00405 2.26432 4.00016C2.27201 3.99834 3.11352 3.5346 4.13437 2.96963C5.15522 2.40467 6.32968 1.75469 6.74431 1.52526C7.15892 1.29583 7.49557 1.10615 7.49243 1.10374C7.46635 1.08389 5.51032 0.00670189 5.48855 0.00019435C5.47293 -0.00446425 5.31099 0.0752034 5.1287 0.177221ZM5.77657 3.07509L3.15733 4.52681L3.36176 4.62783C3.47419 4.68339 3.99133 4.96465 4.51096 5.25287C5.03059 5.54108 5.46532 5.77688 5.477 5.77688C5.48867 5.77688 5.78371 5.61937 6.13262 5.42687C7.34798 4.7563 10.631 2.93901 10.6748 2.91256C10.7173 2.88691 10.6757 2.8623 9.55915 2.25285C8.92122 1.90467 8.3985 1.62059 8.39756 1.62157C8.39659 1.62255 7.21714 2.27664 5.77657 3.07509ZM8.44314 4.95305L5.89576 6.36306L5.89097 9.18672C5.88669 11.7105 5.88924 12.0093 5.91504 11.9998C5.93091 11.994 6.48705 11.6885 7.15091 11.321C7.81476 10.9536 8.95239 10.3241 9.67896 9.92227L11 9.19163V6.36643C11 4.81258 10.9979 3.54164 10.9953 3.54214C10.9927 3.54263 9.84421 4.17755 8.44314 4.95305ZM0.000726021 6.38099L0.00551787 9.18753L2.52165 10.5789C3.90554 11.3441 5.04548 11.9702 5.05484 11.9702C5.06486 11.9702 5.07188 10.818 5.07188 9.17405V6.37787L3.94971 5.75819L2.82753 5.1385L2.82257 5.80815C2.81984 6.17645 2.81238 6.47779 2.806 6.47779C2.79959 6.47779 2.6123 6.38759 2.38976 6.27732L1.98515 6.07686L1.98021 5.36955L1.97524 4.66224L1.5491 4.42679C0.523215 3.85998 0.0256318 3.58614 0.0113134 3.5805C0.00284737 3.57717 -0.00190659 4.83738 0.000726021 6.38099Z" fill="#87B547"/>
</svg>
