<svg width="72" height="72" viewBox="0 0 72 72" fill="none" xmlns="http://www.w3.org/2000/svg">
<rect width="72" height="72" rx="8" fill="#FDFDFD"/>
<path fill-rule="evenodd" clip-rule="evenodd" d="M34.9982 14.6498C33.8102 15.3445 28.1868 18.5957 21.5563 22.4211C19.5188 23.5967 17.8526 24.5735 17.8538 24.5918C17.8568 24.6408 24.8888 28.6815 24.9462 28.6672C24.9732 28.6606 27.9263 26.9602 31.5088 24.8886C35.0912 22.8171 39.2128 20.4339 40.6679 19.5926C42.1228 18.7514 43.3043 18.0559 43.2932 18.047C43.2017 17.9743 36.3374 14.0246 36.261 14.0007C36.2062 13.9836 35.6379 14.2757 34.9982 14.6498ZM37.2717 25.2753L28.08 30.5983L28.7974 30.9687C29.192 31.1724 31.0068 32.2037 32.8304 33.2605C34.6539 34.3173 36.1795 35.1819 36.2205 35.1819C36.2614 35.1819 37.2968 34.6044 38.5212 33.8985C42.7863 31.4398 54.3074 24.7764 54.4612 24.6794C54.6104 24.5853 54.4644 24.4951 50.546 22.2605C48.3073 20.9838 46.4729 19.9422 46.4696 19.9458C46.4662 19.9493 42.3272 22.3477 37.2717 25.2753ZM46.6296 32.1612L37.69 37.3312L37.6732 47.6846C37.6582 56.9385 37.6672 58.034 37.7577 57.9992C37.8134 57.9779 39.7651 56.858 42.0947 55.5105C44.4244 54.1631 48.4167 51.8551 50.9664 50.3817L55.6024 47.7026V37.3436C55.6024 31.6461 55.5949 26.986 55.5857 26.9879C55.5766 26.9897 51.5463 29.3177 46.6296 32.1612ZM17.0025 37.397L17.0194 47.6876L25.8493 52.7892C30.7057 55.5951 34.7061 57.8908 34.739 57.8908C34.7741 57.8908 34.7988 53.6662 34.7988 47.6382V37.3855L30.8607 35.1134L26.9227 32.8412L26.9053 35.2965C26.8957 36.647 26.8695 37.7519 26.8471 37.7519C26.8246 37.7519 26.1674 37.4212 25.3864 37.0169L23.9665 36.2818L23.9491 33.6883L23.9317 31.0949L22.4363 30.2316C18.8361 28.1533 17.0899 27.1492 17.0397 27.1285C17.01 27.1163 16.9933 31.7371 17.0025 37.397Z" fill="#87B547"/>
</svg>
