<svg width="72" height="72" viewBox="0 0 72 72" fill="none" xmlns="http://www.w3.org/2000/svg">
<rect width="72" height="72" rx="8" fill="#87B547"/>
<path fill-rule="evenodd" clip-rule="evenodd" d="M32.7344 14.3276C28.4413 15.2313 24.4889 18.3038 22.5286 22.2615C21.3596 24.6218 20.9841 26.3075 21.0005 29.1223C21.0136 31.359 21.0891 31.7808 21.93 34.3225C22.9541 37.4176 25.1586 42.0553 27.3469 45.7187C29.9444 50.0671 35.5007 58 35.9488 58C36.183 58 39.2009 53.9522 41.3932 50.6976C46.6035 42.9623 50.2127 35.3687 50.8591 30.7819C52.2713 20.7586 42.8434 12.1995 32.7344 14.3276ZM39.1567 22.3571C40.5485 23.0382 41.7664 24.2524 42.5505 25.7401C43.0912 26.766 43.1667 27.1535 43.1676 28.901C43.1684 31.1559 42.7752 32.2939 41.4913 33.7513C37.977 37.7402 31.4599 36.7714 29.2185 31.9273C28.5062 30.3876 28.533 27.2995 29.2707 25.9136C30.3518 23.8829 31.582 22.7473 33.4829 22.0254C34.7924 21.5282 37.8253 21.7054 39.1567 22.3571Z" fill="#FDFDFD"/>
</svg>
