<svg width="24" height="31" viewBox="0 0 24 31" fill="none" xmlns="http://www.w3.org/2000/svg">
<path fill-rule="evenodd" clip-rule="evenodd" d="M2.26726 0.620605C2.26763 1.36739 2.32293 1.58736 2.61863 2.019C3.1576 2.80562 4.18122 3.41073 5.79515 3.89692C6.35985 4.06699 6.49405 4.12893 6.49131 4.21836C6.48942 4.27927 6.16105 6.95121 5.76157 10.156L5.03524 15.9828L4.54834 16.1753C2.20096 17.1035 0.695369 18.3782 0.196791 19.8594C0.099886 20.1473 0.055722 20.4601 0.03218 21.0249L0 21.7969H5.54373H11.0875V26.016C11.0875 30.1115 11.0911 30.2426 11.2092 30.4854C11.3492 30.7732 11.6977 31 12 31C12.3023 31 12.6508 30.7732 12.7908 30.4854C12.9089 30.2426 12.9125 30.1115 12.9125 26.016V21.7969H18.4563H24L23.9678 21.0249C23.9443 20.4601 23.9001 20.1473 23.8032 19.8594C23.3047 18.3782 21.8017 17.1057 19.4519 16.1751L18.9653 15.9824L18.2406 10.1756C17.8421 6.98196 17.5136 4.31015 17.5106 4.23828C17.5059 4.12318 17.5886 4.08249 18.2049 3.89692C19.8188 3.41073 20.8424 2.80562 21.3814 2.019C21.6771 1.58736 21.7324 1.36739 21.7327 0.620605L21.7331 0H12H2.2669L2.26726 0.620605Z" fill="#0C2E3D"/>
</svg>
