<svg width="72" height="72" viewBox="0 0 72 72" fill="none" xmlns="http://www.w3.org/2000/svg">
<rect width="72" height="72" rx="8" fill="#87B547"/>
<path fill-rule="evenodd" clip-rule="evenodd" d="M37.7222 14.0411C36.7997 14.2113 36.0357 14.8799 35.7586 15.7594C35.7271 15.8592 35.691 15.9723 35.6784 16.0107C35.6657 16.0491 35.6488 19.8445 35.6408 24.4449L35.6263 32.8092L35.562 32.9489C35.4805 33.126 35.3299 33.2825 35.1512 33.3757C34.954 33.4785 34.6268 33.4823 34.4268 33.3839C34.2516 33.2978 34.1034 33.1497 34.0173 32.9747L33.9495 32.8372L33.9356 26.1625L33.9216 19.4877L33.8446 19.2425C33.6223 18.5341 33.2071 18.02 32.5893 17.6881C32.0351 17.3903 31.4215 17.3142 30.7833 17.464C29.795 17.696 29.0237 18.5593 28.8799 19.5945C28.8584 19.7489 28.8495 23.3121 28.8495 31.7421V43.6712L27.5151 42.3431C26.2398 41.0738 26.0036 40.8597 25.524 40.5392C24.7081 39.9939 23.7711 39.6384 22.7295 39.4792C22.283 39.4109 21.3036 39.4109 20.8571 39.4792C19.8223 39.6374 18.896 39.9856 18.0744 40.525C17.7783 40.7195 17.3191 41.0864 17.133 41.2771L17 41.4135L17.3143 41.7194C17.4872 41.8877 20.7744 45.1581 24.6192 48.9869C28.4639 52.8158 31.7086 56.0311 31.8295 56.1322C32.8499 56.985 34.106 57.585 35.4167 57.8458C36.212 58.004 36.0545 58 41.4529 58C46.085 58 46.4671 57.9964 46.8044 57.9502C47.8547 57.8062 48.6216 57.5742 49.5431 57.1218C51.4139 56.2033 52.8728 54.6302 53.6529 52.6899C53.8939 52.0905 54.0494 51.5226 54.1756 50.7807L54.2349 50.4316L54.2449 37.6128C54.2523 28.1235 54.2467 24.7409 54.2231 24.5895C54.0711 23.6124 53.3338 22.807 52.3471 22.5403C52.0117 22.4497 51.4322 22.4503 51.0941 22.5415C50.2088 22.7804 49.5451 23.4251 49.2713 24.3119L49.2087 24.5147L49.194 28.648C49.1775 33.3137 49.1988 32.9107 48.9545 33.1823C48.7854 33.3702 48.5992 33.4498 48.3275 33.4501C47.983 33.4506 47.7284 33.2957 47.5811 32.9958L47.5031 32.8372L47.4883 25.3386C47.4741 18.1451 47.4714 17.8321 47.4215 17.6445C47.1819 16.7425 46.5707 16.0974 45.6727 15.7987C45.4481 15.724 45.4083 15.7197 44.9461 15.7197C44.4839 15.7197 44.444 15.724 44.2195 15.7987C43.319 16.0982 42.7555 16.686 42.4771 17.6166L42.4186 17.8121L42.4038 25.3246L42.3891 32.8372L42.3094 32.9993C42.1625 33.2984 41.8188 33.4909 41.492 33.4572C41.0877 33.4155 40.7926 33.1382 40.7281 32.7394C40.7081 32.6156 40.6987 29.9539 40.6986 24.3717L40.6984 16.1855L40.6304 15.9176C40.3038 14.631 39.0188 13.8018 37.7222 14.0411ZM39.2321 39.4559C40.0815 39.6265 40.8756 40.0984 41.4274 40.7604L41.5603 40.9198L41.7229 40.7212C42.2256 40.1072 43.0062 39.6432 43.8357 39.4654C44.2424 39.3782 44.9232 39.3782 45.3299 39.4654C46.824 39.7856 47.9338 40.8997 48.262 42.4089C48.3324 42.7325 48.3335 43.5246 48.2641 43.846C48.1558 44.3472 47.967 44.7945 47.6809 45.2278C47.5293 45.4574 47.1547 45.8429 44.53 48.4699L41.5512 51.4513L38.7339 48.6374C37.1843 47.0898 35.8312 45.723 35.727 45.6001C35.0937 44.8537 34.7944 44.0609 34.7941 43.1285C34.7938 42.5254 34.9081 42.0342 35.1746 41.4938C35.7377 40.3516 36.8034 39.5892 38.0772 39.417C38.35 39.3801 38.9567 39.4005 39.2321 39.4559Z" fill="#FDFDFD"/>
</svg>
