<svg width="31" height="30" viewBox="0 0 31 30" fill="none" xmlns="http://www.w3.org/2000/svg">
<path fill-rule="evenodd" clip-rule="evenodd" d="M20.7159 0.26362C20.2568 0.4228 19.6158 0.749306 19.2915 0.989171C18.6703 1.44885 17.8331 2.4738 17.6688 2.97578C17.5749 3.26265 17.2873 3.2733 9.58142 3.2733C0.812404 3.2733 0.725663 3.28192 0.239626 4.19328C-0.0798755 4.79271 -0.0798755 5.20069 0.239626 5.80012C0.725502 6.71132 0.814988 6.7201 9.55235 6.7201H17.5129L17.9001 7.42794C18.3771 8.29998 19.3314 9.15463 20.3195 9.59473C21.3935 10.073 23.3486 10.061 24.4581 9.56935C25.4082 9.14821 26.3427 8.31597 26.9096 7.38596L27.3156 6.7201H28.3553C28.9273 6.7201 29.6424 6.61983 29.9446 6.49747C30.5127 6.26716 31 5.57435 31 4.9967C31 4.41905 30.5127 3.72624 29.9446 3.49593C29.6424 3.37357 28.9273 3.2733 28.3553 3.2733H27.3156L26.9096 2.60744C25.6163 0.485625 22.9671 -0.516766 20.7159 0.26362ZM23.6101 3.90203C24.4589 4.80572 23.9776 6.38278 22.7745 6.6391C21.7955 6.84763 20.6622 5.9665 20.6622 4.9967C20.6622 4.43753 21.1431 3.73031 21.6823 3.49656C22.3856 3.19152 23.0798 3.33754 23.6101 3.90203ZM7.17466 10.2198C6.8193 10.3341 6.30677 10.5398 6.03556 10.6769C5.4447 10.9758 4.31513 12.1342 3.95363 12.8125C3.70294 13.2826 3.65545 13.3003 2.64251 13.3003C1.34722 13.3003 0.571889 13.5971 0.239626 14.2203C-0.0798755 14.8198 -0.0798755 15.2277 0.239626 15.8272C0.571081 16.4488 1.34658 16.7471 2.63137 16.7471H3.67112L4.07704 17.413C4.644 18.343 5.57844 19.1753 6.52855 19.5964C7.63808 20.088 9.59321 20.1001 10.6672 19.6218C11.6553 19.1817 12.6096 18.327 13.0866 17.455L13.4738 16.7471H21.4343C30.1717 16.7471 30.2612 16.7384 30.747 15.8272C31.0665 15.2277 31.0665 14.8198 30.747 14.2203C30.2612 13.3091 30.1717 13.3003 21.4343 13.3003H13.4738L13.0866 12.5925C12.6055 11.7131 11.6456 10.8577 10.67 10.439C9.75151 10.045 8.05062 9.93831 7.17466 10.2198ZM9.26903 13.523C9.84907 13.7581 10.3249 14.4491 10.3238 15.0551C10.322 16.1068 9.02641 16.9775 8.04804 16.5845C7.38077 16.3163 6.93237 15.7079 6.93237 15.0706C6.93237 14.3678 7.16044 13.9786 7.79073 13.6059C8.40631 13.2418 8.55459 13.2334 9.26903 13.523ZM20.7159 20.3177C20.2568 20.4769 19.6158 20.8034 19.2915 21.0433C18.6703 21.5029 17.8331 22.5279 17.6688 23.0299C17.5749 23.3167 17.2873 23.3274 9.58142 23.3274C0.812404 23.3274 0.725663 23.336 0.239626 24.2474C-0.0798755 24.8468 -0.0798755 25.2548 0.239626 25.8542C0.725502 26.7654 0.814988 26.7742 9.55235 26.7742H17.5129L17.9001 27.482C18.3771 28.3541 19.3314 29.2087 20.3195 29.6488C21.3935 30.1271 23.3486 30.1151 24.4581 29.6234C25.4082 29.2023 26.3427 28.3701 26.9096 27.4401L27.3156 26.7742H28.3553C28.9273 26.7742 29.6424 26.6739 29.9446 26.5516C30.5127 26.3212 31 25.6284 31 25.0508C31 24.4731 30.5127 23.7803 29.9446 23.55C29.6424 23.4277 28.9273 23.3274 28.3553 23.3274H27.3156L26.9096 22.6615C25.6163 20.5397 22.9671 19.5373 20.7159 20.3177ZM23.6101 23.9561C24.4589 24.8598 23.9776 26.4369 22.7745 26.6932C21.7955 26.9017 20.6622 26.0206 20.6622 25.0508C20.6622 24.4916 21.1431 23.7844 21.6823 23.5507C22.3856 23.2456 23.0798 23.3916 23.6101 23.9561Z" fill="#979797"/>
</svg>
