<svg width="72" height="72" viewBox="0 0 72 72" fill="none" xmlns="http://www.w3.org/2000/svg">
<rect width="72" height="72" rx="8" fill="#87B547"/>
<path fill-rule="evenodd" clip-rule="evenodd" d="M25.1049 19.0681C23.86 19.2414 22.2053 19.8833 21.1376 20.607C20.5123 21.0308 19.2893 22.2397 18.8113 22.9063C17.4921 24.7463 16.9123 27.1443 17.0107 30.3537C17.0674 32.2066 17.1837 32.9029 17.6913 34.4316C18.2646 36.1582 18.879 37.1843 20.3991 38.9539C21.6697 40.4332 26.1191 44.93 29.7333 48.3876C33.9363 52.4086 34.5362 52.9637 34.8665 53.138C35.2438 53.3371 36.0233 53.3408 36.3926 53.1453C37.1092 52.7658 48.1228 42.0285 50.3723 39.5162C52.5869 37.043 53.5276 35.2673 54.0752 32.5263C54.3256 31.273 54.3029 28.184 54.0333 26.8116C53.6454 24.8368 52.9071 23.3248 51.6884 22.0084C50.1101 20.3038 48.178 19.3248 45.8599 19.0554C43.6907 18.8032 41.3313 19.4217 39.5097 20.72C38.8466 21.1926 37.6465 22.4122 37.2031 23.0641C36.7691 23.7023 36.2008 24.9467 35.9871 25.7273C35.8484 26.2333 35.7668 26.3865 35.6358 26.3865C35.5082 26.3865 35.4245 26.2436 35.3036 25.8198C34.339 22.4371 31.6702 19.9229 28.2781 19.2012C27.4421 19.0233 25.8929 18.9583 25.1049 19.0681Z" fill="#FDFDFD"/>
</svg>
