<svg width="72" height="72" viewBox="0 0 72 72" fill="none" xmlns="http://www.w3.org/2000/svg">
<rect width="72" height="72" rx="8" fill="#87B547"/>
<path fill-rule="evenodd" clip-rule="evenodd" d="M25.3986 18.0706C24.1086 18.2502 22.3939 18.9153 21.2876 19.6653C20.6396 20.1044 19.3722 21.3571 18.877 22.0479C17.51 23.9545 16.9092 26.4394 17.0111 29.7652C17.0699 31.6853 17.1904 32.4067 17.7164 33.9908C18.3104 35.78 18.947 36.8433 20.5222 38.6771C21.8389 40.21 26.4495 44.8697 30.1948 48.4527C34.5501 52.6194 35.1717 53.1946 35.514 53.3752C35.905 53.5816 36.7128 53.5854 37.0954 53.3828C37.838 52.9895 49.2508 41.863 51.5818 39.2597C53.8766 36.6969 54.8514 34.8568 55.4188 32.0165C55.6783 30.7178 55.6548 27.5169 55.3755 26.0947C54.9735 24.0484 54.2084 22.4815 52.9456 21.1174C51.3101 19.3511 49.3079 18.3366 46.9058 18.0574C44.658 17.7961 42.2131 18.4369 40.3255 19.7823C39.6383 20.272 38.3948 21.5359 37.9353 22.2114C37.4855 22.8727 36.8967 24.1622 36.6752 24.9711C36.5315 25.4954 36.4469 25.6542 36.3112 25.6542C36.1789 25.6542 36.0922 25.5061 35.9669 25.0669C34.9674 21.5617 32.2018 18.9563 28.6868 18.2085C27.8206 18.0242 26.2152 17.9568 25.3986 18.0706Z" fill="#FDFDFD"/>
</svg>
