<svg width="489" height="839" viewBox="0 0 489 839" fill="none" xmlns="http://www.w3.org/2000/svg">
<path fill-rule="evenodd" clip-rule="evenodd" d="M246.43 3.16799C244.476 6.81891 245.955 9.38702 248.079 6.03071C249.57 3.67523 250.029 0 248.833 0C248.445 0 247.363 1.42605 246.43 3.16799ZM253.501 20.6268C251.84 24.9536 252.629 26.6393 254.907 23.6293C256.133 22.0073 257.138 20.1287 257.138 19.4529C257.138 17.2781 254.454 18.1453 253.501 20.6268ZM248.14 28.2218C248.213 29.9911 248.573 30.351 249.058 29.1406C249.497 28.0441 249.442 26.7335 248.938 26.2293C248.433 25.7251 248.075 26.6211 248.14 28.2218ZM251.351 69.9736C251.65 70.8711 252.545 71.6062 253.339 71.6062C254.132 71.6062 255.027 70.8711 255.326 69.9736C255.626 69.076 254.732 68.341 253.339 68.341C251.945 68.341 251.052 69.076 251.351 69.9736ZM224.542 78.8488C223.654 80.2855 227.57 85.0466 229.64 85.0466C232.014 85.0466 232.67 83.0419 231.198 80.2916C229.59 77.2891 225.988 76.5085 224.542 78.8488ZM215.355 91.1092C214.843 91.9384 215.123 93.817 215.978 95.2856C217.314 97.5758 217.542 97.3616 217.582 93.779C217.629 89.4113 216.927 88.5684 215.355 91.1092ZM249.427 99.8538C249.365 100.479 249.006 102.665 248.631 104.709L247.949 108.424L251.783 104.823C253.892 102.843 255.618 100.659 255.618 99.9692C255.618 98.4034 249.582 98.2911 249.427 99.8538ZM221.426 104.79C218.879 105.883 219.186 106.112 223.326 106.202C226.042 106.26 228.265 105.625 228.265 104.79C228.265 102.987 225.625 102.987 221.426 104.79ZM194.421 119.867C193.894 121.882 192.062 122.948 188.544 123.284C183.662 123.752 183.457 124.019 183.919 129.325C184.223 132.796 183.204 137.224 181.205 141.142C179.445 144.59 178.155 148.242 178.336 149.26C178.516 150.277 177.877 153.805 176.912 157.099C175.948 160.393 175.459 163.387 175.825 163.753C176.19 164.119 175.488 165.847 174.264 167.593C171.266 171.87 171.459 174.071 175.155 177.764C177.401 180.009 177.956 181.811 177.137 184.218C176.512 186.056 176.156 192.149 176.346 197.761C176.631 206.118 176.163 208.495 173.757 210.899C172.143 212.512 170.783 215.438 170.736 217.4C170.687 219.364 170.576 223.293 170.488 226.133C170.26 233.501 172.063 242.99 173.692 242.99C175.842 242.99 175.324 250.007 173.034 251.908C171.909 252.84 168.845 254.031 166.227 254.555C162.079 255.384 161.27 254.994 159.951 251.527C159.118 249.337 157.436 247.546 156.213 247.546C154.731 247.546 154.085 246.154 154.277 243.37C154.471 240.528 153.895 239.335 152.476 239.635C151.149 239.916 150.718 239.227 151.289 237.737C152.456 234.695 150.827 234.818 146.654 238.088C144.021 240.152 143.1 242.904 142.345 250.968C141.399 261.052 141.443 261.219 144.934 260.839C148.02 260.505 148.51 261.149 148.678 265.771C148.785 268.694 149.241 272.111 149.69 273.364C151.715 278.995 152.231 283.995 150.792 283.995C148.411 283.995 148.944 286.903 152.152 291.404C155.108 295.554 157.577 305.057 157.132 310.572C156.725 315.622 160.056 322.155 162.753 321.598C164.218 321.295 164.993 319.927 164.685 318.193C164.262 315.814 164.566 315.62 166.372 317.117C167.637 318.167 168.277 320.498 167.874 322.597C167.376 325.206 168.089 326.737 170.367 327.956C172.265 328.971 173.558 331.158 173.558 333.352C173.558 337.946 177.641 340.293 182.469 338.473C185.259 337.421 185.853 336.358 185.127 333.717C184.613 331.846 183.747 327.639 183.2 324.368C182.291 318.931 182.455 318.525 185.101 319.646C186.692 320.32 190.046 321.2 192.553 321.598C195.061 321.997 198.504 323.59 200.205 325.138C203.657 328.281 205.099 337.149 202.159 337.149C201.145 337.149 198.443 338.944 196.152 341.137C193.862 343.33 190.405 345.913 188.472 346.878C186.305 347.956 184.996 349.924 185.063 352.002C185.124 353.856 185.294 359.132 185.443 363.726C185.596 368.422 186.42 372.079 187.324 372.079C188.209 372.079 188.511 371.395 187.994 370.56C187.478 369.725 187.78 369.041 188.665 369.041C189.549 369.041 190.274 368.016 190.274 366.763C190.274 364.101 191.67 363.937 197.013 365.966C201.48 367.664 202.341 373.47 198.671 377.138C196.697 379.112 196.711 379.485 198.794 380.284C202.133 381.564 203.545 381.369 201.291 379.939C199.787 378.984 199.82 378.149 201.451 375.919C204.227 372.124 209.108 373.878 207.742 378.179C206.903 380.82 207.377 381.209 211.099 380.927C213.483 380.744 216.187 381.06 217.106 381.628C219.7 383.23 228.608 378.201 227.64 375.68C226.589 372.943 231.587 367.89 236.585 366.637C238.696 366.107 240.422 365.065 240.422 364.321C240.422 363.576 241.106 362.967 241.941 362.967C242.777 362.967 243.472 364.163 243.484 365.624C243.502 367.705 243.792 367.832 244.82 366.212C245.541 365.073 246.386 364.731 246.696 365.453C247.464 367.237 256.866 372.079 259.565 372.079C260.765 372.079 262.887 374.471 264.282 377.394C265.708 380.383 267.947 382.71 269.397 382.71C272.512 382.71 281.382 391.454 281.627 394.768C281.724 396.071 281.894 398.085 282.007 399.245C282.345 402.732 286.929 404.843 289.512 402.699C292.521 400.203 290.614 391.879 285.497 385.176C283.253 382.234 281.695 378.258 281.77 375.657C281.839 373.201 281.151 369.799 280.241 368.098C278.823 365.453 279.022 365.038 281.608 365.228C283.272 365.351 285.977 366.601 287.619 368.006C289.261 369.41 291.175 370.56 291.871 370.56C293.983 370.56 298.885 376.74 298.908 379.429C298.92 380.948 302.405 383.76 307.676 386.506C312.489 389.014 316.841 392.428 317.353 394.1C317.864 395.77 319.289 398.284 320.519 399.685C321.78 401.122 322.35 403.514 321.824 405.166C320.437 409.537 322.234 412.863 325.521 412.005C327.152 411.578 330.515 412.889 333.402 415.076C339.999 420.071 347.673 421.316 350.221 417.803C352.37 414.84 358.953 414.3 358.953 417.085C358.953 418.092 356.902 419.368 354.394 419.917C348.53 421.205 348.287 426.197 353.77 432.709C359.005 438.928 363.176 438.798 362.172 432.447C362.073 431.819 362.693 431.308 363.55 431.308C364.467 431.308 364.992 427.739 364.827 422.657C364.649 417.211 365.197 413.788 366.307 413.417C369.916 412.216 367.995 409.736 364.193 410.69C361.485 411.369 359.124 410.725 356.361 408.553C352.808 405.759 352.147 405.677 349.861 407.745C346.319 410.948 345.707 410.66 345.883 405.87C345.997 402.753 346.904 401.57 349.456 401.207C353.487 400.636 354.144 395.67 350.378 394.226C349.004 393.7 347.523 393.627 347.085 394.063C346.647 394.501 347.088 394.859 348.062 394.859C349.038 394.859 349.835 395.909 349.835 397.19C349.835 399.051 349.222 399.193 346.796 397.896C345.125 397.002 343.757 395.231 343.757 393.96C343.757 392.69 341.617 389.697 339 387.31C335.288 383.92 334.451 382.151 335.18 379.242C336.04 375.816 336.599 375.605 342.131 376.615C345.441 377.22 348.697 377.197 349.37 376.563C350.044 375.929 351.963 375.137 353.635 374.802C356.06 374.317 355.292 373.459 349.835 370.556C346.074 368.554 342.219 367.064 341.268 367.246C340.318 367.429 337.583 366.768 335.189 365.779C332.797 364.789 330.272 363.923 329.577 363.854C328.883 363.784 327.492 362.191 326.488 360.315C324.799 357.162 324.412 357.079 321.377 359.202C318.251 361.39 318.212 361.705 320.549 365.775C323.751 371.35 322.245 375.122 316.831 375.093C310.017 375.055 308.322 373.283 310.51 368.482C311.933 365.362 311.951 363.984 310.588 362.622C309.608 361.642 308.805 359.99 308.805 358.951C308.805 353.601 291.647 340.754 290.219 345.035C289.827 346.211 288.669 346.164 286.26 344.876C284.388 343.875 281.577 343.462 280.011 343.959C276.562 345.052 271.852 351.847 273.12 353.897C273.623 354.71 273.343 355.373 272.5 355.373C271.656 355.373 270.29 354.176 269.465 352.715C268.22 350.512 267.625 350.401 265.97 352.07C264.321 353.733 264.728 354.687 268.319 357.574C271.07 359.783 272.045 361.446 270.979 362.106C270.053 362.678 268.495 362.652 267.517 362.048C266.297 361.293 266.067 361.802 266.784 363.673C267.699 366.053 267.207 366.271 262.864 365.409C256.069 364.06 243.467 355.267 243.464 351.873C243.463 350.365 242.171 346.264 240.594 342.76C239.018 339.257 237.266 334.227 236.703 331.586C235.839 327.53 236.187 326.62 238.94 325.747L242.201 324.712L239.033 321.341C237.288 319.487 235.84 317.33 235.811 316.549C235.782 315.767 234.439 312.394 232.824 309.053C231.208 305.712 229.865 302.198 229.836 301.243C229.807 300.287 228.759 299.113 227.505 298.632C225.055 297.693 224.288 290.07 226.643 290.07C227.423 290.07 228.546 288.54 229.139 286.672C229.733 284.804 231.965 280.635 234.102 277.41C237.647 272.055 237.761 271.419 235.405 270.1C233.985 269.306 232.824 267.719 232.824 266.571C232.824 263.06 240.356 255.301 246.245 252.746C249.312 251.416 253.006 249.703 254.457 248.937C259.148 246.465 260.305 247.451 257.73 251.723C256.015 254.57 256.952 253.966 260.677 249.824C263.683 246.483 266.254 242.724 266.392 241.472C266.531 240.219 266.806 237.641 267.003 235.743C267.201 233.846 268.435 231.111 269.745 229.664C273.185 225.864 279.9 210.912 279.917 207.011C279.926 205.181 280.616 203.261 281.452 202.745C284.195 201.05 283.048 197.43 279.768 197.43C277.077 197.43 276.723 196.798 277.554 193.487C278.688 188.97 276.197 185.06 272.971 186.296C270.009 187.432 264.643 175.102 264.435 166.678C264.06 151.582 265.049 146.03 268.727 142.578C270.711 140.714 272.334 137.576 272.334 135.605C272.334 131.301 268.439 124.994 264.472 122.873C261.957 121.527 261.71 121.779 262.493 124.898C263.75 129.9 258.173 136.693 252.848 136.646C247.491 136.598 234.153 131.039 222.663 124.063C213.178 118.304 207.427 117.109 204.291 120.244C202.92 121.614 201.846 121.437 199.688 119.484C196.09 116.231 195.359 116.284 194.421 119.867ZM263.216 243.66C263.216 244.029 262.532 244.752 261.697 245.268C260.861 245.785 260.177 245.482 260.177 244.599C260.177 243.715 260.861 242.99 261.697 242.99C262.532 242.99 263.216 243.291 263.216 243.66ZM248.117 308.201C246.254 309.38 246.364 310.531 248.865 316.076C250.476 319.648 251.576 323.86 251.308 325.437C250.956 327.516 251.587 328.16 253.6 327.779C255.396 327.437 256.56 325.648 256.895 322.714C257.179 320.217 258.205 317.596 259.174 316.888C260.296 316.07 259.987 315.905 258.326 316.437C256.89 316.897 255.311 316.619 254.817 315.82C254.323 315.022 254.644 314.369 255.529 314.369C256.413 314.369 257.138 312.66 257.138 310.572C257.138 307.641 256.358 306.78 253.719 306.798C251.837 306.812 249.318 307.443 248.117 308.201ZM261.697 318.68C261.697 319.382 263.406 320.735 265.496 321.686C269.754 323.625 270.372 322.822 267.123 319.576C264.731 317.184 261.697 316.685 261.697 318.68ZM273.094 324.999C272.577 325.835 273.222 326.518 274.524 326.518C275.826 326.518 276.893 325.835 276.893 324.999C276.893 324.164 276.25 323.481 275.463 323.481C274.676 323.481 273.611 324.164 273.094 324.999ZM252.579 351.163C252.579 353.021 256.925 356.975 262.836 360.496C267.304 363.156 264.222 358.259 258.657 353.854C254.741 350.755 252.579 349.798 252.579 351.163ZM365.433 358.79C364.614 359.835 364.131 363.062 364.36 365.963C364.769 371.151 362.932 376.484 360.096 378.336C359.304 378.852 360.219 380.732 362.129 382.512C365.991 386.107 367.44 386.477 368.831 384.228C369.348 383.393 370.805 382.71 372.068 382.71C375.511 382.71 377.929 379.463 378.285 374.357C378.64 369.24 375.896 362.648 373.917 363.869C373.206 364.309 371.958 362.918 371.145 360.78C369.519 356.508 367.717 355.88 365.433 358.79ZM337.678 364.485C337.678 365.321 338.362 366.004 339.198 366.004C340.034 366.004 340.718 365.321 340.718 364.485C340.718 363.65 340.034 362.967 339.198 362.967C338.362 362.967 337.678 363.65 337.678 364.485ZM159.317 371.281C159.79 372.515 162.089 374.475 164.425 375.64C168.14 377.493 168.63 377.47 168.335 375.467C167.949 372.835 163.262 369.041 160.398 369.041C159.311 369.041 158.836 370.027 159.317 371.281ZM247.099 389.864C246.18 394.762 246.569 395.808 250.459 398.92C255.427 402.893 258.657 403.459 258.657 400.36C258.657 399.21 259.642 397.452 260.847 396.452C264.962 393.038 260.59 386.816 253.012 385.302C248.362 384.373 248.091 384.581 247.099 389.864ZM172.418 386.737C171.374 387.167 170.519 388.903 170.519 390.595C170.519 393.079 171.216 393.495 174.157 392.757C177.112 392.016 177.968 392.539 178.723 395.55C179.235 397.587 181.691 400.455 184.18 401.926C189.514 405.075 193.119 411.96 193.95 420.589C194.336 424.592 195.71 427.734 197.823 429.444C199.624 430.902 201.322 434.12 201.594 436.597C201.907 439.454 203.935 442.643 207.14 445.316C210.768 448.341 211.459 449.532 209.591 449.532C206.257 449.532 206.236 453.104 209.553 455.801C211.81 457.634 211.992 457.552 211.079 455.119C210.237 452.876 210.711 452.442 213.587 452.818C215.536 453.073 218.323 452.091 219.781 450.633C221.239 449.177 223.023 448.35 223.747 448.797C224.469 449.245 225.724 447.208 226.535 444.274C227.345 441.34 229.093 437.858 230.417 436.533C233.125 433.827 233.606 428.932 231.304 427.511C230.468 426.995 229.784 423.236 229.784 419.158C229.784 415.08 230.468 411.322 231.304 410.805C233.652 409.355 233.099 405.49 230.544 405.49C229.29 405.49 228.265 404.465 228.265 403.212C228.265 401.959 227.604 400.934 226.795 400.934C225.988 400.934 223.081 398.714 220.337 395.998C216.991 392.687 214.194 391.226 211.845 391.559C209.918 391.831 207.256 391.153 205.928 390.052C204.519 388.883 199.338 387.989 193.474 387.9C187.953 387.817 181.384 387.345 178.877 386.851C176.369 386.357 173.464 386.306 172.418 386.737ZM354.394 399.376C354.394 401.051 358.896 402.668 360.61 401.608C361.371 401.139 361.993 401.479 361.993 402.363C361.993 403.247 363.497 403.971 365.336 403.971C367.384 403.971 368.12 403.438 367.235 402.594C365.153 400.607 354.394 397.91 354.394 399.376ZM305.26 406.503C303.467 408.295 304.18 411.635 306.549 412.543C307.815 413.029 310.965 415.399 313.548 417.811C318.473 422.41 320.962 423.324 320.962 420.534C320.962 419.621 319.76 418.56 318.289 418.176C316.82 417.791 314.065 414.78 312.167 411.484C308.77 405.587 307.263 404.5 305.26 406.503ZM320.962 424.288C320.962 424.603 322.16 425.799 323.622 426.946C326.032 428.834 326.085 428.781 324.196 426.372C322.21 423.842 320.962 423.038 320.962 424.288ZM259.071 432.48C256.781 434.255 255.954 436.122 256.516 438.248C257.012 440.115 256.381 442.195 254.965 443.369C251.804 445.99 251.927 450.476 255.196 451.729C257.425 452.584 257.483 452.937 255.588 454.106C253.933 455.128 253.804 455.919 255.083 457.198C256.363 458.477 257.425 457.036 259.236 451.567C261.634 444.32 264.184 429.757 263.043 429.822C262.721 429.841 260.932 431.037 259.071 432.48ZM337.058 431.081C336.616 431.797 338.39 435.729 340.999 439.818C346.062 447.754 348.178 446.926 345.277 438.143C343.523 432.832 338.595 428.598 337.058 431.081ZM269.318 435.394C269.306 437.224 269.979 439.144 270.814 439.66C272.749 440.856 272.749 437.337 270.814 434.345C269.617 432.494 269.337 432.69 269.318 435.394ZM375.692 434.678C375.677 436.489 374.893 436.989 373.125 436.312C371.095 435.533 370.819 435.924 371.75 438.257C372.391 439.864 373.774 443.958 374.82 447.354C377.231 455.181 382.833 461.681 387.165 461.681C389.013 461.681 391.575 463.296 392.876 465.282C398.479 473.826 403.778 478.302 407.228 477.401C409.094 476.914 410.621 476.83 410.621 477.218C410.621 479.594 405.582 487.358 403.527 488.146C400.037 489.484 399.028 487.861 401.193 484.393C402.214 482.761 402.416 481.424 401.643 481.424C400.869 481.424 399.915 482.279 399.523 483.323C399.102 484.444 398.219 483.715 397.368 481.544C396.465 479.244 395.528 478.512 394.862 479.587C393.612 481.608 399.958 492.01 402.457 492.037C403.4 492.046 405.039 493.102 406.101 494.382C407.785 496.409 407.557 496.526 404.317 495.296C401.277 494.14 399.95 494.56 397.02 497.601C392.735 502.051 387.668 501.779 385.564 496.985C384.737 495.103 383.369 493.821 382.524 494.137C381.679 494.455 379.107 492.962 376.809 490.822C371.939 486.286 371.267 488.424 374.862 497.026C376.092 499.963 377.257 506.463 377.456 511.469C377.728 518.348 378.488 520.991 380.569 522.289C382.888 523.737 383.55 523.404 384.776 520.18C386.492 515.669 388.03 515.39 391.206 519.012C398.175 526.955 399.251 533.297 395.072 541.792C393.803 544.371 393.878 546.116 395.371 548.906C396.459 550.939 396.987 553.995 396.541 555.696C395.9 558.144 397.14 559.576 402.485 562.562L409.236 566.333L408.212 557.289C407.65 552.317 407.655 548.247 408.223 548.247C408.791 548.247 410.37 550.81 411.733 553.942C413.499 558.004 414.38 558.874 414.806 556.979C415.134 555.518 416.721 554.321 418.33 554.321C421.532 554.321 422.354 549.949 419.66 547.256C418.78 546.377 417.865 543.835 417.628 541.607C417.389 539.379 415.544 535.69 413.528 533.409C410.349 529.814 409.853 527.72 409.803 517.656C409.77 511.156 408.967 505.114 407.978 503.922C406.51 502.154 407.082 501.896 411.361 502.396C415.482 502.876 416.83 503.915 418.114 507.593C419.375 511.212 420.152 511.827 421.767 510.487C422.895 509.552 424.263 509.233 424.808 509.777C426.221 511.189 434.935 511.534 434.935 510.178C434.935 508.232 441.641 510.592 444.492 513.542C448.586 517.777 448.861 516.951 445.345 510.993C442.968 506.967 441.465 505.857 439.316 506.539C435.73 507.676 435.424 503.913 438.871 501.053C440.904 499.366 440.956 498.795 439.189 497.451C438.034 496.572 435.596 493.408 433.771 490.421C431.303 486.38 430.894 484.551 432.175 483.271C433.323 482.124 433.397 480.9 432.4 479.59C430.46 477.041 431.513 458.519 433.722 456.311C435.092 454.944 432.27 452.276 426.987 449.94C424.133 448.678 423.127 447.351 423.766 445.691C424.334 444.21 423.102 441.616 420.581 438.986C417.087 435.341 415.523 434.788 410.185 435.308C406.729 435.643 401.48 436.538 398.523 437.296C391.96 438.974 378.892 437.079 377.057 434.182C375.979 432.485 375.712 432.582 375.692 434.678ZM319.663 440.04C319.824 443.173 319.4 447.717 318.718 450.138C317.826 453.312 317.966 454.241 319.221 453.465C320.245 452.833 320.962 453.365 320.962 454.758C320.962 456.059 320.394 457.125 319.698 457.125C318.412 457.125 314.553 467.931 315.499 468.877C315.784 469.161 319.113 465.949 322.9 461.741C326.687 457.532 330.86 454.088 332.173 454.088C333.486 454.088 335.58 456.055 336.823 458.46C338.067 460.864 340.137 463.235 341.421 463.727C342.705 464.221 343.757 465.584 343.757 466.76C343.757 467.934 345.658 469.275 347.98 469.74C350.304 470.204 354.065 472.306 356.338 474.413L360.473 478.243V473.848C360.473 471.431 359.771 469.021 358.912 468.491C358.055 467.961 357.526 466.725 357.738 465.744C358.178 463.695 352.817 454.202 351.027 453.86C350.372 453.734 349.073 453.564 348.14 453.48C347.207 453.397 343.002 450.083 338.795 446.115C331.296 439.041 329.889 438.254 325.749 438.822C324.62 438.977 324.104 438.447 324.6 437.644C325.353 436.427 322.476 434.345 320.042 434.345C319.672 434.345 319.502 436.909 319.663 440.04ZM278.852 441.468C278.309 442.88 278.61 444.282 279.519 444.586C280.428 444.888 282.707 446.466 284.584 448.094C286.461 449.72 288.255 451.051 288.571 451.051C290.219 451.051 291.553 443.878 290.337 441.559C288.491 438.037 280.194 437.972 278.852 441.468ZM147.724 450.817C147.724 455.78 152.488 463.354 156.591 464.912C159.34 465.957 160.746 465.923 161.12 464.804C161.418 463.911 162.445 463.666 163.404 464.257C166.464 466.149 170.774 465.82 171.614 463.631C172.063 462.465 170.9 460.088 169.034 458.349C166.286 455.792 165.393 455.585 164.35 457.27C163.334 458.914 162.159 458.483 158.731 455.2C156.346 452.919 153.579 451.051 152.579 451.051C151.581 451.051 150.763 450.367 150.763 449.532C150.763 448.697 150.08 448.013 149.244 448.013C148.408 448.013 147.724 449.275 147.724 450.817ZM223.729 461.302C223.716 463.182 224.39 464.719 225.225 464.719C227.13 464.719 227.13 463.107 225.225 460.163C224.034 458.321 223.748 458.539 223.729 461.302ZM251.819 461.681C252.336 462.517 253.059 463.2 253.428 463.2C253.798 463.2 254.099 462.517 254.099 461.681C254.099 460.846 253.374 460.163 252.489 460.163C251.605 460.163 251.302 460.846 251.819 461.681ZM365.792 461.681C365.275 462.517 365.536 463.2 366.372 463.2C367.208 463.2 368.314 462.517 368.831 461.681C369.348 460.846 369.086 460.163 368.25 460.163C367.415 460.163 366.308 460.846 365.792 461.681ZM148.286 469.655C148.789 471.535 149.212 473.999 149.222 475.132C149.236 476.417 150.184 476.833 151.737 476.237C153.851 475.427 153.93 475.644 152.259 477.656C150.889 479.306 150.769 480.519 151.868 481.617C154.772 484.519 158.355 477.304 156.562 472.163C155.717 469.741 154.456 468.112 153.76 468.541C153.063 468.973 152.064 468.629 151.538 467.78C149.722 464.845 147.361 466.206 148.286 469.655ZM165.2 467.756C164.115 469.51 165.514 472.312 167.475 472.312C168.209 472.312 168.707 470.945 168.581 469.275C168.335 466.013 166.726 465.29 165.2 467.756ZM250.553 470.288C247.687 473.152 249.793 476.779 254.875 477.731C257.809 478.281 260.558 479.292 260.982 479.979C261.406 480.665 260.992 484.518 260.06 488.539C259.128 492.561 258.37 500.101 258.375 505.294C258.379 511.532 257.417 516.626 255.538 520.309C253.453 524.396 252.936 527.644 253.6 532.487C254.199 536.853 253.84 539.894 252.542 541.455C251.027 543.282 250.991 544.23 252.386 545.624C253.782 547.02 255.377 546.137 259.399 541.751C265.403 535.2 270.109 533.06 278.511 533.06C284.701 533.06 285.8 534.182 282.668 537.312C281.665 538.314 281.406 539.135 282.093 539.135C282.782 539.135 282.616 540.012 281.725 541.085C279.128 544.21 281.999 547.253 286.201 545.83C288.185 545.158 290.298 544.735 290.895 544.89C291.492 545.045 291.611 544.21 291.158 543.031C290.705 541.854 291.07 539.52 291.966 537.845C292.864 536.169 293.185 533.723 292.681 532.41C291.585 529.556 288.094 529.254 287.017 531.921C286.535 533.114 286.207 532.887 286.131 531.31C286.059 529.83 287.88 528.15 290.57 527.213C294.074 525.992 295.129 524.702 295.129 521.636C295.129 518.423 296.306 517.153 301.192 515.103C304.526 513.703 307.261 511.743 307.271 510.749C307.295 507.834 310.27 506.824 312.755 508.885C314.778 510.563 314.825 510.293 313.153 506.625C311.732 503.509 311.684 501.775 312.957 499.735C313.893 498.236 314.461 495.206 314.22 493C313.843 489.565 314.11 489.264 316.095 490.902C318.133 492.584 318.172 492.432 316.426 489.628L314.442 486.442L307.616 490.254C303.066 492.795 301.026 493.355 301.5 491.935C301.891 490.763 301.441 489.034 300.499 488.093C298.065 485.66 292.089 483.971 292.089 485.716C292.089 488.591 287.296 488.934 283.33 486.343C280.61 484.565 279.712 484.387 280.583 485.798C281.482 487.256 281.233 487.681 279.764 487.197C278.603 486.814 277.437 485.043 277.174 483.262C276.855 481.096 274.334 478.931 269.576 476.738C265.66 474.932 260.642 472.514 258.423 471.365C253.939 469.041 252.058 468.784 250.553 470.288ZM227.981 473.349C229.076 473.788 230.388 473.734 230.892 473.23C231.397 472.725 230.5 472.367 228.898 472.432C227.128 472.505 226.768 472.865 227.981 473.349ZM376.514 481.288C374.367 484.759 379.838 492.055 384.59 492.055C389.279 492.055 389.864 489.454 386.299 484.451C383.161 480.047 378.26 478.463 376.514 481.288ZM143.981 492.587C141.442 494.441 141.425 494.682 143.77 495.582C145.349 496.188 146.659 495.679 147.209 494.242C148.484 490.922 147.177 490.251 143.981 492.587ZM126.697 498.297C125.586 500.075 124.676 504.562 124.676 508.264C124.676 514.254 124.407 514.779 122.238 513.018C120.143 511.317 119.945 511.421 120.828 513.775C121.402 515.306 121.24 516.133 120.459 515.65C119.69 515.174 118.629 515.485 118.1 516.341C117.571 517.196 118.204 518.303 119.506 518.802C120.808 519.302 121.466 520.368 120.969 521.171C120.471 521.975 121.358 522.971 122.94 523.386C124.522 523.799 125.916 525.46 126.039 527.079C126.252 529.911 126.126 529.922 122.662 527.365C120.682 525.902 118.737 523.51 118.34 522.049C117.942 520.588 116.904 519.392 116.034 519.392C114.936 519.392 114.939 520.793 116.04 523.948C116.913 526.453 118.246 528.504 119 528.504C122.136 528.504 120.135 537.245 115.856 542.23C112.083 546.623 111.089 547.112 109.8 545.209C108.954 543.956 108.25 543.706 108.236 544.652C108.224 545.6 106.826 546.736 105.13 547.179C103.436 547.622 102.141 548.556 102.255 549.255C102.811 552.643 99.9574 557.237 97.0412 557.653C94.6812 557.989 93.9017 559.022 94.2253 561.377C94.5414 563.669 93.9092 564.571 92.0994 564.415C90.601 564.286 87.235 567.368 84.0514 571.786C81.0425 575.963 74.9898 583.032 70.6026 587.496C66.2154 591.959 62.6245 595.912 62.6245 596.28C62.6245 597.595 53.4064 605.923 52.3275 605.583C49.77 604.774 41.5776 609.476 40.8771 612.156C40.4318 613.857 38.7906 615.069 36.9336 615.069C35.183 615.069 33.7515 615.845 33.7515 616.793C33.7515 617.742 32.2121 620.005 30.3323 621.824C24.2857 627.673 16.92 636.706 14.6998 640.996C11.463 647.25 10.6743 656.074 13.3504 656.074C14.5418 656.074 15.5159 657.155 15.5159 658.478C15.5159 659.8 16.3714 660.598 17.4154 660.25C20.0991 659.355 19.7845 653.838 17.0355 653.591C15.7818 653.478 14.1588 653.308 13.4309 653.211C10.7579 652.858 16.455 647.908 22.7341 645.125C26.9587 643.253 29.1926 641.295 29.1926 639.465C29.1926 637.439 30.7517 636.376 34.8517 635.608C37.9639 635.024 42.1353 632.923 44.123 630.936C46.1091 628.95 48.9782 626.931 50.4963 626.45C52.0145 625.969 54.5097 622.512 56.0415 618.771C58.4076 612.99 59.716 611.726 64.7581 610.359C70.6087 608.774 80.8602 601.803 80.8602 599.411C80.8602 598.735 83.2977 594.99 86.2777 591.092C89.2561 587.192 90.9657 583.758 90.0767 583.462C89.1862 583.166 88.469 581.784 88.4811 580.393C88.5024 578.188 88.7136 578.156 90.1208 580.139C91.3791 581.913 91.5842 581.476 91.0508 578.156C90.1254 572.395 92.3364 570.623 103.541 568.138C112.566 566.138 113.215 565.693 115.754 559.772C118.901 552.432 121.761 549.733 126.98 549.178C129.068 548.956 132.809 547.156 135.293 545.179C139.424 541.892 139.629 541.306 137.684 538.34C136.514 536.556 136.015 534.638 136.575 534.077C137.135 533.518 136.795 533.06 135.821 533.06C134.845 533.06 134.047 531.351 134.047 529.263C134.047 527.031 133.175 525.466 131.93 525.466C129.364 525.466 127.739 521.756 128.938 518.632C129.745 516.533 131.558 515.721 134.427 516.175C135.053 516.274 135.567 515.256 135.567 513.914C135.567 512.392 134.727 511.795 133.336 512.328C130.048 513.59 129.305 511.26 131.231 505.734C132.339 502.561 132.412 500.498 131.441 499.866C130.618 499.328 129.668 498.028 129.332 496.976C128.934 495.735 128.008 496.2 126.697 498.297ZM342.873 503.222C341.784 506.056 344.04 509.497 346.366 508.553C347.111 508.249 346.863 506.317 345.816 504.259C344.126 500.936 343.795 500.821 342.873 503.222ZM356.216 505.041C355.128 506.273 354.674 507.985 355.207 508.846C355.739 509.708 355.41 511.336 354.472 512.465C353.534 513.593 352.933 515.1 353.133 515.815C353.7 517.832 349.681 528.999 347.472 531.541C346.384 532.794 344.085 536.894 342.365 540.653C340.645 544.412 338.624 548.512 337.874 549.765C337.124 551.018 335.688 553.819 334.682 555.989C333.676 558.159 331.18 561.88 329.138 564.257C327.094 566.633 325.739 569.404 326.128 570.413C326.515 571.425 325.854 575.501 324.657 579.474C322.155 587.784 321.795 596.845 323.967 596.845C326.95 596.845 337.188 576.631 338.295 568.552C338.54 566.772 340.21 563.739 342.008 561.81C343.806 559.883 345.277 557.83 345.277 557.249C345.277 555.981 350.933 553.965 355.141 553.731C357.879 553.579 358.204 552.333 358.56 540.653C358.775 533.553 359.222 525.011 359.551 521.67C359.88 518.328 359.523 514.823 358.759 513.882C357.912 512.837 357.975 510.573 358.921 508.088C359.774 505.843 360.473 503.71 360.473 503.347C360.473 501.956 358.11 502.897 356.216 505.041ZM312.694 518.681C311.071 519.906 308.507 520.91 306.995 520.91C304.746 520.91 304.246 522.166 304.246 527.817C304.246 533.298 303.433 535.476 300.309 538.369C297.92 540.582 296.828 542.751 297.528 543.883C298.163 544.912 298.849 549.692 299.051 554.51C299.417 563.215 299.385 563.285 293.737 566.226C290.428 567.95 286.406 568.872 284.111 568.435C280.888 567.818 279.733 568.526 277.771 572.316C274.761 578.134 274.721 582.264 277.653 584.695C278.907 585.735 279.932 587.204 279.932 587.959C279.932 590.79 289.661 599.884 292.714 599.905C297.361 599.94 299.034 601.509 301.064 607.734C302.064 610.8 303.804 614.071 304.929 615.005C308.123 617.655 315.299 615.59 319.055 610.94C322.538 606.627 323.702 599.882 320.962 599.882C320.127 599.882 319.443 599.103 319.443 598.151C319.443 597.199 318.324 595.602 316.958 594.605C313.688 592.216 313.159 576.754 316.157 571.209C319.384 565.244 324.002 552.443 324.002 549.466C324.002 548.025 325.322 545.618 326.935 544.116C330.687 540.623 335.09 527.76 333.86 523.887C333.341 522.254 331.082 520.532 328.839 520.063C326.597 519.592 323.575 518.565 322.123 517.782C318.516 515.83 316.168 516.055 312.694 518.681ZM206.356 523.744C205.701 524.803 205.577 526.078 206.078 526.58C207.438 527.939 208.921 525.94 208.186 523.738C207.672 522.195 207.314 522.195 206.356 523.744ZM442.582 527.312C442.524 530.44 447.957 533.828 449.368 531.546C449.887 530.707 449.492 530.022 448.489 530.022C447.487 530.022 445.759 528.826 444.649 527.365C442.761 524.88 442.627 524.877 442.582 527.312ZM383.267 528.593C383.267 529.477 383.951 529.779 384.787 529.263C385.623 528.747 386.307 528.024 386.307 527.655C386.307 527.286 385.623 526.985 384.787 526.985C383.951 526.985 383.267 527.709 383.267 528.593ZM372.63 534.858C372.63 537.227 373.314 537.611 376.049 536.774C380.023 535.56 384.372 533.248 383.267 532.94C382.85 532.823 380.286 532.54 377.569 532.311C373.543 531.974 372.63 532.445 372.63 534.858ZM144.045 537.888C140.573 541.94 142.033 545.773 146.505 544.354C149.736 543.331 154.758 539.315 153.604 538.682C153.295 538.513 151.607 537.579 149.852 536.606C147.189 535.131 146.224 535.344 144.045 537.888ZM439.494 545.715C439.494 547.108 438.856 548.247 438.076 548.247C436.596 548.247 435.826 550.266 434.168 558.498C433.382 562.402 433.675 563.434 435.575 563.434C436.936 563.434 437.974 564.708 437.974 566.381C437.974 568.003 438.692 569.773 439.568 570.313C440.653 570.984 440.585 571.991 439.351 573.477C437.111 576.174 438.707 578.125 441.357 575.929C442.53 574.956 443.115 571.73 442.84 567.739C442.591 564.118 442.249 557.625 442.08 553.31C441.912 548.995 441.261 544.953 440.634 544.325C440.006 543.698 439.494 544.324 439.494 545.715ZM364.333 561.52C362.21 563.809 360.473 566.191 360.473 566.814C360.473 567.438 357.932 569.01 354.827 570.306C351.723 571.603 348.656 573.492 348.012 574.503C346.07 577.557 346.652 581.658 349.029 581.658C352.202 581.658 350.229 585.884 346.503 587.066C344.356 587.748 343.929 588.512 345.059 589.642C346.19 590.771 347.336 590.694 348.922 589.379C350.162 588.349 353.782 587.678 356.966 587.886C368.943 588.668 373.963 587.76 377.924 584.092C380.373 581.823 382.98 580.745 384.84 581.231C386.899 581.77 387.826 581.249 387.826 579.557C387.826 578.206 387.26 577.102 386.565 577.102C385.07 577.102 385.257 565.496 386.776 563.977C389.155 561.599 387.614 560.118 385.114 562.38C382.608 564.645 382.056 564.607 377.896 561.875C375.326 560.19 372.165 559.307 370.54 559.821C368.68 560.408 368.051 560.138 368.731 559.04C370.638 555.957 368.241 557.309 364.333 561.52ZM413.66 560.946C413.66 561.25 415.712 564.078 418.219 567.23C422.904 573.123 424.244 571.75 420.878 564.507C419.834 562.26 417.781 560.414 416.319 560.408C414.858 560.402 413.66 560.644 413.66 560.946ZM460.769 566.974C460.769 568.421 459.86 569.952 458.748 570.378C455.204 571.738 456.886 577.744 461.243 579.283C466.656 581.195 467.495 579.901 465.296 573.027C463.132 566.263 460.769 563.104 460.769 566.974ZM429.768 578.216C427.995 579.989 428.896 588.294 431.985 598.666C433.707 604.44 434.903 611.348 434.645 614.015C434.221 618.398 433.64 618.91 428.621 619.329C424.25 619.692 422.55 619.054 420.643 616.333C418.36 613.076 418.205 613.051 417.994 615.869C417.871 617.517 417.629 619.891 417.459 621.144C417.289 622.397 417.047 624.277 416.924 625.32C416.626 627.835 412.613 627.753 411.077 625.202C409.018 621.785 400.155 617.32 398.622 618.926C397.857 619.728 396.827 625.792 396.333 632.402C395.839 639.013 395.113 644.743 394.718 645.136C393.713 646.14 384.959 642.36 382.423 639.825C380.628 638.031 379.749 638.094 376.473 640.238C374.186 641.736 372.63 644.184 372.63 646.287C372.63 648.229 371.919 650.258 371.048 650.796C370.179 651.334 369.87 653.041 370.361 654.59C371.413 657.901 367.298 660.63 361.257 660.63C356.426 660.63 350.076 663.761 346.178 668.068C343.208 671.346 339.198 672.366 339.198 669.844C339.198 669.064 340.706 667.95 342.546 667.365C348.395 665.511 350.484 662.197 350.003 655.539C349.138 643.563 342.196 634.693 335.653 637.202C334.3 637.722 332.107 637.055 330.77 635.719C327.644 632.595 324.464 632.469 327.041 635.571C328.585 637.43 328.498 637.849 326.57 637.849C325.271 637.849 323.754 639.274 323.201 641.016C322.433 643.432 321.354 643.971 318.645 643.291C310.685 641.294 303.131 649.206 305.254 657.317C306.242 661.091 304.064 662.404 295.967 662.914C292.41 663.137 288.075 664.082 286.335 665.013C284.595 665.943 281.791 666.704 280.104 666.704C271.112 666.704 261.665 677.174 262.289 686.447C262.487 689.371 261.713 693.236 260.572 695.036C259.431 696.835 258.363 699.912 258.197 701.873C258.033 703.835 256.36 706.975 254.478 708.853C251.085 712.239 250.078 717.561 252.222 720.77C254.209 723.743 260.346 726.198 262.955 725.062C264.353 724.454 266.414 723.769 267.535 723.54C270.723 722.89 271.6 721.377 268.789 721.377C266.137 721.377 265.278 717.605 267.603 716.168C268.344 715.711 269.389 713.003 269.924 710.151C270.459 707.299 271.951 704.561 273.24 704.066C274.756 703.486 275.252 702.126 274.645 700.216C273.989 698.147 274.676 696.746 276.939 695.535C278.715 694.586 279.852 692.984 279.464 691.977C277.755 687.523 288.035 680.187 294.095 681.539C296.282 682.026 296.809 683.481 296.613 688.478C296.478 691.956 296.502 695.484 296.668 696.319C296.835 697.154 296.846 699.718 296.695 702.014C296.391 706.614 296.967 706.939 301.307 704.618C304.357 702.987 305.392 698.597 302.727 698.597C301.891 698.597 301.207 699.394 301.207 700.369C301.207 701.343 300.803 701.736 300.309 701.242C299.814 700.749 299.861 698.926 300.411 697.194C301.207 694.688 301.981 694.348 304.192 695.531C306.494 696.762 307.144 696.326 307.982 692.994C309.351 687.541 313.364 681.747 313.364 685.223C313.364 686.593 314.22 688.033 315.264 688.425C316.606 688.927 316.343 689.767 314.367 691.289C311.828 693.243 311.793 693.626 313.987 695.446C315.595 696.78 316.404 696.881 316.404 695.745C316.404 694.808 317.885 694.041 319.697 694.041C321.506 694.041 322.531 694.498 321.971 695.057C320.621 696.407 325.439 701.634 328.036 701.634C330.746 701.634 330.632 699.426 327.801 697.078C324.728 694.53 324.921 693.199 328.896 689.497C331.828 686.769 332.015 685.94 330.311 683.216C327.811 679.215 328.86 678.246 335.695 678.246C339.689 678.246 341.819 679.167 343.427 681.588C344.649 683.425 347.103 684.932 348.881 684.935C352.61 684.941 361.993 690.271 361.993 692.382C361.993 693.166 364.097 695.91 366.668 698.48C369.24 701.05 370.607 703.153 369.708 703.153C368.808 703.153 368.071 704.505 368.071 706.155C368.071 707.806 366.327 710.3 364.195 711.696C362.062 713.093 359.327 716.15 358.116 718.49C355.434 723.673 355.235 731.528 357.766 732.372C358.994 732.781 359.531 736.143 359.358 742.37C359.215 747.529 359.578 751.755 360.164 751.762C360.753 751.768 362.869 754.173 364.869 757.109C367.633 761.164 372.376 764.298 384.624 770.165C393.49 774.411 403.172 778.226 406.139 778.645C411.244 779.365 411.686 779.071 414.349 773.172C416.169 769.135 418.151 766.938 419.97 766.938C423.425 766.938 423.696 772.431 420.45 776.72C417.433 780.705 417.643 783.18 421.258 786.274C422.93 787.704 424.298 790.089 424.298 791.574C424.298 795.012 426.671 795.032 429.673 791.617C443.545 775.825 446.612 766.01 441.181 754.775C439.416 751.127 437.974 747.493 437.974 746.697C437.974 744.545 433.063 741.223 429.797 741.169C427.366 741.128 427.072 740.299 427.832 735.616C428.325 732.59 429.782 728.948 431.071 727.523C432.361 726.1 433.42 723.964 433.425 722.776C433.431 721.59 435.476 719.456 437.971 718.038C442.364 715.539 442.565 715.561 444.259 718.724C445.569 721.172 445.572 722.137 444.27 722.571C441.441 723.512 442.29 725.282 445.572 725.282C448.059 725.282 448.612 724.27 448.612 719.719C448.612 716.627 447.6 713.316 446.332 712.265C444.495 710.74 444.048 710.778 444.03 712.459C444.012 714.107 443.708 714.072 442.58 712.288C441.567 710.687 442.091 709.038 444.387 706.593C449.011 701.675 451.13 702.321 452.194 708.971C452.706 712.172 454.456 715.995 456.084 717.467C457.713 718.94 458.691 721.063 458.26 722.185C457.828 723.309 458.901 725.447 460.643 726.937C463.082 729.024 463.808 731.422 463.808 737.39C463.808 742.04 464.998 747.518 466.787 751.099L469.765 757.066L470.022 750.992C470.528 739.021 470.8 736.663 471.795 735.67C472.35 735.114 471.806 732.731 470.586 730.372C467.829 725.045 467.824 724.415 470.545 724.415C471.742 724.415 473.155 725.781 473.686 727.452C474.216 729.122 475.312 730.489 476.122 730.489C477.012 730.489 476.944 729.279 475.948 727.42C473.947 723.683 475.146 721.377 479.094 721.377C480.717 721.377 482.044 720.724 482.044 719.925C482.044 719.128 483.7 716.034 485.726 713.053C488.665 708.724 489.151 706.737 488.134 703.197C487.387 700.589 487.444 698.57 488.274 698.293C490.069 697.695 488.197 683.41 486.323 683.41C484.691 683.41 477.485 675.903 477.485 674.202C477.485 673.558 478.108 672.805 478.868 672.526C479.629 672.248 480.743 668.703 481.345 664.648C482.408 657.465 482.354 657.32 479.2 659.006C475.886 660.779 474.464 658.699 477.647 656.733C478.843 655.993 478.787 655.36 477.453 654.535C476.319 653.835 476.076 652.567 476.839 651.334C478.608 648.474 478.767 643.957 477.135 642.949C476.38 642.483 473.462 642.102 470.65 642.102C467.325 642.102 465.203 641.236 464.585 639.625C464.062 638.262 464.262 636.938 465.03 636.683C465.799 636.426 468.557 634.317 471.162 631.993C476.57 627.167 476.593 622.864 471.239 617.169C468.668 614.434 468.141 612.496 468.823 608.294C469.795 602.306 469.605 602.121 465.287 604.816C462.618 606.482 461.802 606.157 458.612 602.16C456.614 599.654 455.24 597.183 455.559 596.669C456.518 595.118 451.25 591.27 445.29 589.168C441.789 587.933 439.38 585.968 438.868 583.927C438.043 580.642 431.469 576.517 429.768 578.216ZM454.69 584.906C454.69 587.295 455.374 589.251 456.21 589.251C457.046 589.251 457.73 588.616 457.73 587.84C457.73 587.066 458.729 585.432 459.951 584.211C461.901 582.262 461.714 581.902 458.432 581.275C455.161 580.651 454.69 581.108 454.69 584.906ZM336.934 605.933C336.41 606.781 334.653 607.476 333.03 607.476C329.176 607.476 329.255 609.965 333.177 612.062C337.616 614.437 342.117 612.659 341.139 608.918C340.177 605.242 338.219 603.852 336.934 605.933ZM390.387 608.05C389.373 610.691 392.15 613.55 395.728 613.55C398.889 613.55 399.047 612.922 396.891 608.894C395.063 605.48 391.549 605.024 390.387 608.05ZM2.19931 664.534C2.67647 665.011 2.16132 667.146 1.05351 669.28C-1.51772 674.231 1.01855 681.425 4.35718 678.656C7.76421 675.83 6.61688 663.667 2.94241 663.667C2.05798 663.667 1.72214 664.057 2.19931 664.534ZM74.7816 719.696C74.7816 720.442 75.8074 721.445 77.0611 721.927C78.45 722.458 79.3405 721.928 79.3405 720.571C79.3405 719.344 78.3148 718.34 77.0611 718.34C75.8074 718.34 74.7816 718.95 74.7816 719.696ZM252.959 735.389C253.167 736.414 251.801 737.486 249.92 737.773C245.845 738.394 245.912 737.958 248.947 744.036C251.884 749.919 253.966 750.881 260.949 749.572C264.961 748.818 266.256 747.816 266.256 745.465C266.256 743.632 267.503 742.028 269.295 741.561C273.41 740.485 273.152 738.095 268.915 738.034C267.034 738.008 264.168 736.983 262.546 735.756C258.961 733.047 252.43 732.796 252.959 735.389ZM235.2 738.528C235.772 740.025 236.621 740.868 237.089 740.4C237.557 739.934 237.091 738.708 236.051 737.677C234.55 736.189 234.377 736.364 235.2 738.528ZM181.433 755.548C180.012 758.666 180.103 759.344 181.948 759.344C183.332 759.344 184.195 757.885 184.195 755.548C184.195 753.459 183.963 751.751 183.68 751.751C183.396 751.751 182.384 753.459 181.433 755.548ZM202.811 769.48C200.93 770.792 199.392 772.764 199.392 773.862C199.392 776.373 208.051 777.353 212.834 775.38C215.635 774.226 216.708 774.463 217.843 776.489C219.177 778.872 219.568 778.881 223.016 776.624C225.069 775.28 226.734 772.724 226.722 770.94C226.707 768.889 226.276 768.361 225.549 769.504C223.993 771.95 214.933 771.546 213.951 768.987C212.903 766.26 207.06 766.519 202.811 769.48ZM245.245 769.372C246.607 770.733 248.45 771.596 249.341 771.29C250.231 770.985 249.117 769.87 246.865 768.816C243.08 767.043 242.957 767.085 245.245 769.372ZM212.309 780.606C211.792 781.441 212.094 782.125 212.979 782.125C213.863 782.125 214.588 781.441 214.588 780.606C214.588 779.771 214.287 779.087 213.918 779.087C213.549 779.087 212.825 779.771 212.309 780.606ZM199.392 784.798C199.392 785.71 198.196 786.77 196.732 787.153C194.334 787.779 194.325 787.864 196.643 788.023C199.384 788.212 201.822 785.566 200.303 784.049C199.802 783.548 199.392 783.885 199.392 784.798ZM192.491 794.084C191.12 795.453 195.134 798.619 197.223 797.819C200.542 796.546 199.8 792.914 196.276 793.179C194.564 793.308 192.86 793.715 192.491 794.084ZM432.016 799.716C432.089 801.485 432.449 801.845 432.934 800.635C433.373 799.538 433.318 798.227 432.814 797.723C432.309 797.219 431.95 798.115 432.016 799.716ZM425.817 801.868C425.817 802.703 426.843 803.386 428.097 803.386C429.35 803.386 430.376 802.703 430.376 801.868C430.376 801.032 429.35 800.349 428.097 800.349C426.843 800.349 425.817 801.032 425.817 801.868ZM151.903 811.469C140.758 818.335 138.004 822.657 146.584 819.819C149.3 818.92 152.207 817.366 153.043 816.365C155.091 813.911 161.191 812.45 162.249 814.16C163.822 816.704 165.958 815.565 166.08 812.119C166.145 810.24 166.545 809.557 166.966 810.6C167.388 811.645 168.391 812.499 169.197 812.499C170.002 812.499 169.432 810.811 167.931 808.749C166.429 806.688 164.516 805.034 163.68 805.075C162.844 805.116 157.545 807.994 151.903 811.469ZM143.925 827.685C144.442 828.521 145.165 829.204 145.534 829.204C145.904 829.204 146.204 828.521 146.204 827.685C146.204 826.85 145.48 826.167 144.595 826.167C143.711 826.167 143.408 826.85 143.925 827.685ZM126.654 833.76C126.654 839.76 126.856 840.178 128.303 837.177C129.49 834.72 129.49 832.8 128.303 830.343C126.856 827.342 126.654 827.76 126.654 833.76Z" fill="#87B547"/>
</svg>
