<svg width="11" height="12" viewBox="0 0 11 12" fill="none" xmlns="http://www.w3.org/2000/svg">
<path fill-rule="evenodd" clip-rule="evenodd" d="M5.6515 0.0112072C5.39993 0.0576383 5.19156 0.239981 5.11597 0.479836C5.10739 0.507065 5.09755 0.537913 5.0941 0.548386C5.09065 0.558859 5.08604 1.59396 5.08386 2.84861L5.07989 5.12979L5.06237 5.16787C5.04015 5.21617 4.99905 5.25886 4.95033 5.28427C4.89654 5.31233 4.8073 5.31335 4.75276 5.28652C4.70499 5.26303 4.66458 5.22264 4.64107 5.1749L4.6226 5.13741L4.61879 3.31703L4.61498 1.49666L4.59399 1.42977C4.53334 1.23656 4.42012 1.09637 4.25162 1.00583C4.10049 0.924632 3.93315 0.903869 3.75908 0.944733C3.48955 1.008 3.27918 1.24346 3.23996 1.52577C3.23411 1.56787 3.23168 2.53966 3.23168 4.83875V8.09215L2.86776 7.72993C2.51995 7.38375 2.45552 7.32538 2.32473 7.23796C2.1022 7.08923 1.84666 6.9923 1.56258 6.94887C1.44082 6.93025 1.1737 6.93025 1.05194 6.94887C0.769732 6.99202 0.517095 7.08697 0.293031 7.2341C0.212258 7.28714 0.0870221 7.38719 0.0362859 7.43921L0 7.47642L0.0857188 7.55985C0.132865 7.60574 1.02937 8.49765 2.07795 9.54189C3.12653 10.5861 4.01143 11.463 4.0444 11.4906C4.3227 11.7232 4.66527 11.8868 5.02273 11.9579C5.23964 12.0011 5.19667 12 6.66897 12C7.93226 12 8.03648 11.999 8.12849 11.9864C8.41491 11.9471 8.62407 11.8839 8.87539 11.7605C9.38562 11.51 9.78348 11.081 9.99625 10.5518C10.062 10.3883 10.1044 10.2334 10.1388 10.0311L10.155 9.93589L10.1577 6.43985C10.1597 3.85187 10.1582 2.92933 10.1518 2.88804C10.1103 2.62157 9.90921 2.40191 9.64011 2.32919C9.54863 2.30447 9.3906 2.30461 9.29838 2.3295C9.05696 2.39466 8.87592 2.57049 8.80126 2.81234L8.78418 2.86765L8.78019 3.99491C8.77569 5.26739 8.7815 5.15747 8.71486 5.23153C8.66875 5.28279 8.61798 5.30448 8.54386 5.30458C8.44991 5.30471 8.38047 5.26245 8.34029 5.18069L8.31902 5.13741L8.31498 3.09234C8.31111 1.13049 8.31037 1.0451 8.29678 0.993967C8.23141 0.747957 8.06472 0.57202 7.81982 0.490553C7.75858 0.470186 7.74772 0.469005 7.62166 0.469005C7.49561 0.469005 7.48472 0.470186 7.4235 0.490545C7.1779 0.572226 7.02424 0.732548 6.94829 0.986342L6.93234 1.03966L6.92832 3.08853L6.92429 5.13741L6.90256 5.18164C6.86249 5.2632 6.76875 5.31571 6.67964 5.30651C6.56937 5.29514 6.48889 5.21951 6.47131 5.11075C6.46585 5.07699 6.46329 4.35107 6.46325 2.82864L6.46319 0.596035L6.44465 0.522992C6.35558 0.172086 6.00512 -0.0540521 5.6515 0.0112072ZM6.0633 6.94251C6.29496 6.98905 6.51154 7.11775 6.66203 7.2983L6.69826 7.34178L6.74262 7.28759C6.87971 7.12013 7.0926 6.9936 7.31883 6.94512C7.42975 6.92134 7.61541 6.92134 7.72633 6.94512C8.13381 7.03244 8.4365 7.33629 8.52601 7.74787C8.5452 7.83613 8.54551 8.05215 8.52656 8.13983C8.49704 8.2765 8.44555 8.39849 8.36753 8.51668C8.32618 8.5793 8.22401 8.68442 7.50819 9.40087L6.69578 10.214L5.92742 9.44657C5.50481 9.02449 5.13579 8.65172 5.10735 8.61821C4.93464 8.41465 4.85302 8.19843 4.85293 7.94414C4.85286 7.77965 4.88404 7.64569 4.9567 7.49832C5.11029 7.18681 5.40092 6.97886 5.74833 6.9319C5.82272 6.92184 5.98819 6.92742 6.0633 6.94251Z" fill="#87B547"/>
</svg>
